<svg xmlns="http://www.w3.org/2000/svg" width="420" height="210" viewBox="0 0 420 210" role="img">
<rect x="0.5" y="0.5" width="419" height="209" rx="10" fill="#0d1117" stroke="#30363d"/>
<text x="24" y="36" font-family="-apple-system, 'Segoe UI', Helvetica, Arial, sans-serif" font-size="15" font-weight="600" fill="#38bdf8">Languages <tspan fill="#8b949e" font-weight="400" font-size="12">· featured repositories</tspan></text>
<clipPath id="bar"><rect x="24" y="54" width="372" height="10" rx="5"/></clipPath><g clip-path="url(#bar)">
<rect x="24.00" y="54" width="206.06" height="10" fill="#3572A5"/>
<rect x="229.56" y="54" width="129.25" height="10" fill="#3178c6"/>
<rect x="358.31" y="54" width="21.61" height="10" fill="#f1e05a"/>
<rect x="379.42" y="54" width="8.13" height="10" fill="#8a63d2"/>
<rect x="387.05" y="54" width="7.18" height="10" fill="#89e051"/>
<rect x="393.73" y="54" width="2.77" height="10" fill="#6e7681"/>
</g>
<circle cx="29" cy="90" r="5" fill="#3572A5"/>
<text x="42" y="94" font-family="-apple-system, 'Segoe UI', Helvetica, Arial, sans-serif" font-size="13" fill="#e6edf3">Python <tspan fill="#8b949e">55.3%</tspan></text>
<circle cx="225" cy="90" r="5" fill="#3178c6"/>
<text x="238" y="94" font-family="-apple-system, 'Segoe UI', Helvetica, Arial, sans-serif" font-size="13" fill="#e6edf3">TypeScript <tspan fill="#8b949e">34.6%</tspan></text>
<circle cx="29" cy="116" r="5" fill="#f1e05a"/>
<text x="42" y="120" font-family="-apple-system, 'Segoe UI', Helvetica, Arial, sans-serif" font-size="13" fill="#e6edf3">JavaScript <tspan fill="#8b949e">5.7%</tspan></text>
<circle cx="225" cy="116" r="5" fill="#8a63d2"/>
<text x="238" y="120" font-family="-apple-system, 'Segoe UI', Helvetica, Arial, sans-serif" font-size="13" fill="#e6edf3">CSS <tspan fill="#8b949e">2.1%</tspan></text>
<circle cx="29" cy="142" r="5" fill="#89e051"/>
<text x="42" y="146" font-family="-apple-system, 'Segoe UI', Helvetica, Arial, sans-serif" font-size="13" fill="#e6edf3">Shell <tspan fill="#8b949e">1.8%</tspan></text>
<circle cx="225" cy="142" r="5" fill="#6e7681"/>
<text x="238" y="146" font-family="-apple-system, 'Segoe UI', Helvetica, Arial, sans-serif" font-size="13" fill="#e6edf3">Other <tspan fill="#8b949e">0.6%</tspan></text>
<text x="24" y="196" font-family="-apple-system, 'Segoe UI', Helvetica, Arial, sans-serif" font-size="10.5" fill="#6e7681">GitHub language bytes · vigil, VaultDrop, ADPO, multi-agent-cooperation</text>
</svg>
